{"title":"When.Zachary.Beaver.Came.to.Town.(2003).DVDRip.XviD-tNe","uid":6401990,"size":733458422,"categoryP":"video","categoryS":"movies","magnet":"?xt=urn:btih:f4e57e039f89525b13c4009807fab02a0603e430&amp;dn=When.Zachary.Beaver.Came.to.Town.%282003%29.DVDRip.XviD-tNe&amp;tr=udp%3A%2F%2Ftracker.openbittorrent.com%3A80&amp;tr=udp%3A%2F%2Fopen.demonii.com%3A1337&amp;tr=udp%3A%2F%2Ftracker.coppersurfer.tk%3A6969&amp;tr=udp%3A%2F%2Fexodus.desync.com%3A6969","seeders":0,"leechers":1,"uploader":"trialNerror","files":4,"time":1305706072,"description":"Zachary Beaver, a sideshow attraction also known as the world's fattest boy,\narrives in the sleepy town of Granger, Texas.  \n\n\nComedy | Drama | Family\n\n\nFormat                           : AVI\nFormat/Info                      : Audio Video Interleave\nFile size                        : 699 MiB\nDuration                         : 1h 24mn\nOverall bit rate                 : 1 153 Kbps\nWriting application              : VirtualDubMod 1.5.10.2 (build 2542/release)\nWriting library                  : VirtualDubMod build 2542/release\n\nVideo\nID                               : 0\nFormat                           : MPEG-4 Visual\nFormat profile                   : Advanced Simple@L5\nFormat settings, BVOP            : Yes\nFormat settings, QPel            : No\nFormat settings, GMC             : No warppoints\nFormat settings, Matrix          : Default (H.263)\nMuxing mode                      : Packed bitstream\nCodec ID                         : XVID\nCodec ID/Hint                    : XviD\nDuration                         : 1h 24mn\nBit rate                         : 1 010 Kbps\nWidth                            : 688 pixels\nHeight                           : 512 pixels\nDisplay aspect ratio             : 4:3\nFrame rate                       : 29.970 fps\nColor space                      : YUV\nChroma subsampling               : 4:2:0\nBit depth                        : 8 bits\nScan type                        : Progressive\nBits/(Pixel*Frame)               : 0.096\nStream size                      : 613 MiB (88%)\nWriting library                  : XviD 58\n\nAudio\nID                               : 1\nFormat                           : MPEG Audio\nFormat version                   : Version 1\nFormat profile                   : Layer 3\nMode                             : Joint stereo\nMode extension                   : MS Stereo\nCodec ID                         : 55\nCodec ID/Hint                    : MP3\nDuration                         : 1h 24mn\nBit rate mode                    : Variable\nBit rate                         : 128 Kbps\nChannel(s)                       : 2 channels\nSampling rate                    : 48.0 KHz\nStream size                      : 78.2 MiB (11%)\nAlignment                        : Aligned on interleaves\nInterleave, duration             : 24 ms (0.72 video frame)\nInterleave, preload duration     : 536 ms\nWriting library                  : LAME3.98.2","torrent":{"xt":"urn:btih:f4e57e039f89525b13c4009807fab02a0603e430","amp;dn":"When.Zachary.Beaver.Came.to.Town.%282003%29.DVDRip.XviD-tNe","amp;tr":["udp%3A%2F%2Ftracker.openbittorrent.com%3A80","udp%3A%2F%2Fopen.demonii.com%3A1337","udp%3A%2F%2Ftracker.coppersurfer.tk%3A6969","udp%3A%2F%2Fexodus.desync.com%3A6969"],"infoHash":"f4e57e039f89525b13c4009807fab02a0603e430","infoHashBuffer":{"type":"Buffer","data":[244,229,126,3,159,137,82,91,19,196,0,152,7,250,176,42,6,3,228,48]},"announce":[],"urlList":[]}}